<svg width="708.601" height="69.902" viewBox="0 0 708.601 69.902" xmlns="http://www.w3.org/2000/svg"><g id="muchRainbow" stroke-linecap="round" fill-rule="evenodd" font-size="9pt" stroke="#000" stroke-width="0.25mm" fill="black" style="stroke:#000;stroke-width:0.25mm;fill:black"><path d="M 58.6 60.901 L 58.6 42.801 A 10.231 10.231 0 0 0 58.415 40.757 Q 57.773 37.623 54.912 37.251 A 6.292 6.292 0 0 0 54.1 37.201 A 2.862 2.862 0 0 0 51.725 38.412 Q 51.375 38.87 51.1 39.501 Q 50.1 41.801 50.1 45.301 Q 50.1 50.337 49.965 53.748 A 112.358 112.358 0 0 1 49.95 54.101 Q 49.8 57.601 49.3 60.401 Q 48.8 63.201 48.1 64.801 Q 47.4 66.401 46.2 67.451 Q 45 68.501 43.5 68.851 A 11.643 11.643 0 0 1 42.266 69.064 Q 41.14 69.201 39.7 69.201 A 20.019 20.019 0 0 1 37.454 69.083 Q 36.341 68.957 35.409 68.696 A 8.9 8.9 0 0 1 34.05 68.201 A 7.393 7.393 0 0 1 32.472 67.225 A 5.557 5.557 0 0 1 31 65.401 A 7.93 7.93 0 0 1 30.354 63.515 Q 30.1 62.335 30.1 60.901 L 30.1 42.801 A 10.231 10.231 0 0 0 29.915 40.757 Q 29.273 37.623 26.412 37.251 A 6.292 6.292 0 0 0 25.6 37.201 A 2.902 2.902 0 0 0 23.475 38.126 Q 23.028 38.578 22.65 39.251 A 8.174 8.174 0 0 0 21.864 41.284 Q 21.626 42.242 21.543 43.371 A 16.965 16.965 0 0 0 21.5 44.601 L 21.5 58.501 Q 21.5 63.718 19.61 66.175 A 5.662 5.662 0 0 1 19 66.851 A 6.917 6.917 0 0 1 16.833 68.189 Q 14.775 69.022 11.608 69.169 A 30.38 30.38 0 0 1 10.2 69.201 Q 4.953 69.201 2.672 67.025 A 5.329 5.329 0 0 1 2.15 66.451 Q 0.205 63.962 0.02 58.568 A 34.04 34.04 0 0 1 0 57.401 L 0 32.801 A 15.363 15.363 0 0 1 0.383 29.274 A 10.56 10.56 0 0 1 2.75 24.601 A 9.062 9.062 0 0 1 8.911 21.555 A 12.632 12.632 0 0 1 10.1 21.501 A 19.426 19.426 0 0 1 13.72 21.812 Q 15.678 22.184 17.13 23.002 A 7.581 7.581 0 0 1 20.5 26.801 Q 24.269 24.024 27.889 22.919 A 18.389 18.389 0 0 1 27.95 22.901 Q 31.237 21.91 35.537 21.812 A 42.02 42.02 0 0 1 36.5 21.801 Q 43.366 21.801 46.703 27.31 A 14.909 14.909 0 0 1 47.2 28.201 L 48.2 27.401 A 28.867 28.867 0 0 1 60.442 22.348 A 38.996 38.996 0 0 1 67.1 21.801 Q 74.2 21.801 77.3 27.201 Q 79.892 31.715 80.317 41.331 A 90.041 90.041 0 0 1 80.4 45.301 Q 80.4 50.337 80.265 53.748 A 112.358 112.358 0 0 1 80.25 54.101 Q 80.1 57.601 79.6 60.401 A 29.177 29.177 0 0 1 79.264 62.034 Q 78.872 63.674 78.367 64.765 A 8.559 8.559 0 0 1 78.35 64.801 Q 77.6 66.401 76.25 67.451 Q 74.9 68.501 73.25 68.851 A 14.03 14.03 0 0 1 71.893 69.064 Q 70.663 69.201 69.1 69.201 A 23.634 23.634 0 0 1 66.659 69.083 Q 64.493 68.857 62.95 68.201 A 8.453 8.453 0 0 1 61.349 67.318 Q 60.218 66.512 59.6 65.401 Q 58.6 63.601 58.6 60.901 Z M 686.6 48.301 L 686.7 30.401 Q 686.7 25.801 689.3 23.651 A 7.477 7.477 0 0 1 691.483 22.438 Q 693.607 21.649 696.843 21.524 A 32.61 32.61 0 0 1 698.1 21.501 A 19.986 19.986 0 0 1 699.839 21.572 Q 701.385 21.707 702.5 22.101 Q 704.2 22.701 705.45 24.051 Q 706.334 25.005 706.918 26.66 A 14.529 14.529 0 0 1 707.35 28.151 A 33.115 33.115 0 0 1 707.821 30.567 Q 708.028 31.872 708.177 33.36 A 63.501 63.501 0 0 1 708.3 34.751 A 83.757 83.757 0 0 1 708.471 37.652 Q 708.536 39.157 708.568 40.895 A 199.945 199.945 0 0 1 708.6 44.601 A 29.581 29.581 0 0 1 708.078 50.263 A 24.345 24.345 0 0 1 706.95 54.251 A 25.611 25.611 0 0 1 705.334 57.741 Q 704.293 59.591 703.017 61.011 A 15.631 15.631 0 0 1 702.75 61.301 Q 700.2 64.001 696.8 65.851 A 27.391 27.391 0 0 1 692.338 67.805 A 23.483 23.483 0 0 1 690 68.451 Q 686.6 69.201 683.2 69.201 Q 675.1 69.201 668.3 64.101 Q 661.6 69.201 653.5 69.201 Q 650.1 69.201 646.75 68.451 A 25.052 25.052 0 0 1 642.311 66.993 A 30.735 30.735 0 0 1 639.95 65.851 Q 636.5 64.001 633.9 61.301 A 17.614 17.614 0 0 1 631.406 57.966 Q 630.485 56.395 629.748 54.504 A 29.042 29.042 0 0 1 629.65 54.251 A 25.395 25.395 0 0 1 628.162 47.82 A 31.4 31.4 0 0 1 628 44.601 A 177.847 177.847 0 0 1 628.057 39.973 Q 628.179 35.302 628.565 32.145 A 34.223 34.223 0 0 1 628.9 29.951 A 21.578 21.578 0 0 1 629.492 27.539 Q 630.267 25.058 631.517 23.724 A 5.573 5.573 0 0 1 631.9 23.351 A 6.362 6.362 0 0 1 633.955 22.17 Q 635.793 21.501 638.5 21.501 A 28.763 28.763 0 0 1 641.074 21.608 Q 643.521 21.829 645.2 22.501 A 8.627 8.627 0 0 1 646.872 23.377 Q 648.056 24.187 648.709 25.327 A 5.522 5.522 0 0 1 648.75 25.401 A 7.567 7.567 0 0 1 649.45 27.217 Q 649.669 28.087 649.751 29.113 A 16.131 16.131 0 0 1 649.8 30.401 L 649.9 48.201 Q 649.9 49.582 649.943 50.243 A 8.578 8.578 0 0 0 649.95 50.351 Q 649.985 50.795 650.089 51.38 A 18.839 18.839 0 0 0 650.2 51.951 A 4.688 4.688 0 0 0 650.321 52.413 Q 650.469 52.877 650.687 53.135 A 1.081 1.081 0 0 0 650.8 53.251 A 2.992 2.992 0 0 0 651.167 53.522 Q 651.362 53.646 651.6 53.763 A 6.298 6.298 0 0 0 651.9 53.901 A 3.309 3.309 0 0 0 652.535 54.095 Q 652.854 54.161 653.228 54.186 A 7.131 7.131 0 0 0 653.7 54.201 Q 657.7 54.201 658.4 51.901 A 80.994 80.994 0 0 1 657.627 44.049 A 98.32 98.32 0 0 1 657.5 39.001 Q 657.5 33.201 657.9 29.951 A 16.143 16.143 0 0 1 658.334 27.689 Q 658.807 25.951 659.65 24.701 A 7.261 7.261 0 0 1 660.931 23.24 A 5.636 5.636 0 0 1 663 22.101 A 11.253 11.253 0 0 1 664.416 21.784 Q 666.157 21.501 668.7 21.501 Q 672 21.501 673.9 22.101 A 5.18 5.18 0 0 1 676.308 23.731 A 7.181 7.181 0 0 1 677 24.701 A 9.946 9.946 0 0 1 677.871 26.611 Q 678.198 27.57 678.41 28.708 A 20.402 20.402 0 0 1 678.6 29.951 A 42.209 42.209 0 0 1 678.81 32.215 Q 678.974 34.61 678.997 37.9 A 157.66 157.66 0 0 1 679 39.001 A 107.755 107.755 0 0 1 678.718 46.961 A 86.599 86.599 0 0 1 678.2 52.001 A 2.745 2.745 0 0 0 679.801 53.709 Q 680.871 54.186 682.592 54.2 A 12.9 12.9 0 0 0 682.7 54.201 Q 684.69 54.201 685.538 53.469 A 1.743 1.743 0 0 0 685.95 52.951 Q 686.443 52.003 686.562 49.82 A 28.002 28.002 0 0 0 686.6 48.301 Z M 243.6 60.901 L 243.5 42.401 Q 243.5 36.701 239.1 36.701 A 5.535 5.535 0 0 0 238.293 36.757 A 4.33 4.33 0 0 0 237.65 36.901 A 6.652 6.652 0 0 0 236.696 37.274 A 5.913 5.913 0 0 0 236.45 37.401 A 3.213 3.213 0 0 0 235.726 37.946 A 3.962 3.962 0 0 0 235.45 38.251 Q 235 38.801 234.65 39.451 A 4.295 4.295 0 0 0 234.335 40.212 A 5.936 5.936 0 0 0 234.15 41.001 Q 234 41.901 234 43.001 L 234 54.001 Q 234 60.741 232.21 64.272 A 8.761 8.761 0 0 1 231.35 65.651 A 8.49 8.49 0 0 1 226.407 68.764 A 13.442 13.442 0 0 1 223.3 69.101 A 15.735 15.735 0 0 1 220.24 68.823 Q 218.481 68.474 217.14 67.685 A 7.656 7.656 0 0 1 215.1 65.951 Q 212.5 62.801 212.5 54.801 L 212.3 12.201 Q 212.3 6.001 215.3 3.101 A 10.093 10.093 0 0 1 220.508 0.456 A 14.553 14.553 0 0 1 223.3 0.201 A 20.487 20.487 0 0 1 226.218 0.395 Q 227.711 0.61 228.921 1.064 A 8.414 8.414 0 0 1 231.3 2.401 A 5.81 5.81 0 0 1 232.879 4.533 Q 233.751 6.437 233.945 9.47 A 28.702 28.702 0 0 1 234 11.301 L 234 25.801 A 30.072 30.072 0 0 1 243.916 22.043 A 41.892 41.892 0 0 1 252 21.301 Q 256.224 21.301 258.976 23.198 A 9.287 9.287 0 0 1 259.7 23.751 Q 261.989 25.684 263.343 29.392 A 24.054 24.054 0 0 1 264 31.501 A 35.499 35.499 0 0 1 264.798 35.534 Q 265.099 37.646 265.25 40.112 A 86.963 86.963 0 0 1 265.4 45.401 Q 265.4 48.426 265.33 50.884 A 117.954 117.954 0 0 1 265.25 53.001 A 102.657 102.657 0 0 1 265.063 56.063 A 78 78 0 0 1 264.8 58.851 A 29.066 29.066 0 0 1 264.546 60.633 Q 264.285 62.112 263.9 63.201 A 15.622 15.622 0 0 1 263.294 64.685 Q 262.925 65.463 262.5 66.101 Q 261.7 67.301 260.45 67.951 A 10.064 10.064 0 0 1 258.254 68.776 A 11.56 11.56 0 0 1 257.7 68.901 A 13.979 13.979 0 0 1 256.383 69.095 Q 255.736 69.161 255.006 69.186 A 26.688 26.688 0 0 1 254.1 69.201 A 24.321 24.321 0 0 1 251.348 69.056 Q 247.85 68.656 246.05 67.151 A 6.48 6.48 0 0 1 243.989 63.906 Q 243.6 62.574 243.6 60.901 Z M 181.9 31.801 A 2.907 2.907 0 0 0 181.758 30.849 Q 181.31 29.555 179.457 29.503 A 5.614 5.614 0 0 0 179.3 29.501 A 3.459 3.459 0 0 0 177.188 30.239 Q 176.681 30.619 176.21 31.195 A 7.896 7.896 0 0 0 175.9 31.601 Q 174.4 33.701 173.6 36.851 Q 172.8 40.001 172.8 43.401 A 13.334 13.334 0 0 0 173.285 47.083 A 10.201 10.201 0 0 0 175.85 51.501 A 10.147 10.147 0 0 0 181.31 54.349 A 14.739 14.739 0 0 0 184.1 54.601 Q 189.2 54.601 192.9 53.401 A 12.283 12.283 0 0 0 194.009 53.043 Q 195.14 52.623 196.55 51.901 Q 198.554 50.876 199.472 50.806 A 1.695 1.695 0 0 1 199.6 50.801 Q 201 50.801 201.9 51.301 A 3.924 3.924 0 0 1 202.487 51.695 Q 202.929 52.058 203.15 52.501 Q 203.5 53.201 203.5 54.001 Q 203.5 54.952 203.062 56.181 A 13.22 13.22 0 0 1 202.55 57.401 A 13.765 13.765 0 0 1 201.518 59.189 Q 200.936 60.051 200.175 60.948 A 25.797 25.797 0 0 1 199.6 61.601 A 26.941 26.941 0 0 1 195.921 64.945 A 30.807 30.807 0 0 1 194.95 65.651 Q 192.3 67.501 188.4 68.701 A 27.726 27.726 0 0 1 180.205 69.901 L 180.2 69.901 A 37.89 37.89 0 0 1 170.935 68.824 A 27.763 27.763 0 0 1 159.8 63.251 A 21.722 21.722 0 0 1 151.959 48.165 A 30.831 30.831 0 0 1 151.8 45.001 A 25.367 25.367 0 0 1 152.771 37.861 A 21.457 21.457 0 0 1 155.45 32.051 A 22.798 22.798 0 0 1 165.301 23.74 A 27.249 27.249 0 0 1 165.5 23.651 Q 171.9 20.801 180.2 20.801 Q 188.1 20.801 193.25 22.651 Q 198.4 24.501 200.6 27.601 A 11.883 11.883 0 0 1 202.688 33.114 A 15.358 15.358 0 0 1 202.8 35.001 Q 202.8 36.901 202.05 38.901 A 13.882 13.882 0 0 1 200.887 41.26 A 18.016 18.016 0 0 1 199.75 42.901 A 9.118 9.118 0 0 1 197.731 44.789 Q 196.63 45.555 195.2 46.151 A 15.726 15.726 0 0 1 191.62 47.144 A 21.692 21.692 0 0 1 188.2 47.401 Q 186.991 47.401 186.075 47.31 A 11.304 11.304 0 0 1 185.25 47.201 A 7.353 7.353 0 0 1 183.93 46.835 A 9.808 9.808 0 0 1 182.85 46.351 A 3.755 3.755 0 0 1 181.317 44.857 A 5.07 5.07 0 0 1 181 44.201 Q 180.534 43.035 180.43 41.385 A 15.682 15.682 0 0 1 180.4 40.401 Q 180.4 38.401 181.15 35.551 A 59.523 59.523 0 0 0 181.443 34.397 Q 181.817 32.851 181.885 32.098 A 3.327 3.327 0 0 0 181.9 31.801 Z M 471.5 60.901 L 471.4 42.301 A 10.457 10.457 0 0 0 471.219 40.257 Q 470.576 37.049 467.66 36.735 A 6.164 6.164 0 0 0 467 36.701 A 4.099 4.099 0 0 0 463.877 38.065 A 5.472 5.472 0 0 0 463.55 38.451 Q 462.343 40.015 462.056 42.499 A 13.002 13.002 0 0 0 462 43.101 L 462 58.501 A 23.432 23.432 0 0 1 461.844 61.313 Q 461.476 64.344 460.242 66.059 A 5.517 5.517 0 0 1 459.5 66.901 Q 457 69.201 450.7 69.201 Q 445.453 69.201 443.172 67.025 A 5.329 5.329 0 0 1 442.65 66.451 Q 440.705 63.962 440.52 58.568 A 34.04 34.04 0 0 1 440.5 57.401 L 440.5 32.801 A 15.363 15.363 0 0 1 440.883 29.274 A 10.56 10.56 0 0 1 443.25 24.601 A 9.062 9.062 0 0 1 449.411 21.555 A 12.632 12.632 0 0 1 450.6 21.501 Q 453.713 21.501 456.02 22.239 A 11.523 11.523 0 0 1 457 22.601 Q 459.6 23.701 460.9 26.401 A 30.676 30.676 0 0 1 472.212 21.974 A 42.035 42.035 0 0 1 479.9 21.301 Q 487 21.301 490.15 26.901 A 18.425 18.425 0 0 1 491.743 30.86 Q 492.945 35.058 493.219 41.373 A 90.569 90.569 0 0 1 493.3 45.301 Q 493.3 51.601 493 55.551 A 62.124 62.124 0 0 1 492.726 58.359 Q 492.457 60.569 492.05 62.351 Q 491.4 65.201 490 66.601 Q 488.6 68.001 486.75 68.601 A 10.706 10.706 0 0 1 485.215 68.966 Q 484.426 69.098 483.508 69.156 A 24.095 24.095 0 0 1 482 69.201 Q 477.027 69.201 474.538 67.544 A 6.064 6.064 0 0 1 473.95 67.101 A 6.724 6.724 0 0 1 471.817 63.589 Q 471.525 62.469 471.502 61.129 A 13.444 13.444 0 0 1 471.5 60.901 Z M 111.6 29.801 L 111.7 48.101 Q 111.7 53.801 116.1 53.801 Q 117.6 53.801 118.75 52.851 A 5.255 5.255 0 0 0 119.948 51.414 A 7.193 7.193 0 0 0 120.5 50.201 A 10.212 10.212 0 0 0 120.977 48.192 A 13.863 13.863 0 0 0 121.1 46.301 L 121.1 32.901 A 16.284 16.284 0 0 1 121.364 29.9 A 12.153 12.153 0 0 1 122.3 26.951 Q 123.5 24.401 125.8 23.001 Q 128.1 21.601 131.2 21.601 Q 135.011 21.601 137.626 22.771 A 9.429 9.429 0 0 1 139.6 23.951 A 6.703 6.703 0 0 1 141.598 26.637 Q 142.538 28.813 142.597 32.151 A 25.573 25.573 0 0 1 142.6 32.601 L 142.6 58.601 A 23.432 23.432 0 0 1 142.444 61.413 Q 142.076 64.444 140.842 66.159 A 5.517 5.517 0 0 1 140.1 67.001 Q 137.6 69.301 131.3 69.301 A 22.379 22.379 0 0 1 129.388 69.223 Q 128.404 69.139 127.554 68.962 A 11.531 11.531 0 0 1 126.7 68.751 Q 124.843 68.213 123.702 67.149 A 5.549 5.549 0 0 1 123.65 67.101 A 6.314 6.314 0 0 1 122.431 65.458 A 8.426 8.426 0 0 1 121.9 64.201 Q 117.8 66.901 113.25 68.001 A 38.444 38.444 0 0 1 107.799 68.89 A 50.444 50.444 0 0 1 103.1 69.101 Q 96 69.101 92.9 63.551 Q 90.299 58.892 89.88 49.197 A 90.586 90.586 0 0 1 89.8 45.301 Q 89.8 39.001 90.1 35.051 A 62.124 62.124 0 0 1 90.375 32.243 Q 90.644 30.032 91.05 28.251 Q 91.477 26.38 92.205 25.135 A 5.943 5.943 0 0 1 93.05 24.001 Q 94.4 22.601 96.25 22.001 A 10.503 10.503 0 0 1 97.729 21.647 Q 98.499 21.516 99.402 21.455 A 25.135 25.135 0 0 1 101.1 21.401 Q 106.074 21.401 108.563 23.057 A 6.064 6.064 0 0 1 109.15 23.501 A 6.672 6.672 0 0 1 111.227 26.84 Q 111.53 27.913 111.587 29.197 A 13.634 13.634 0 0 1 111.6 29.801 Z M 524.4 11.901 L 524.4 25.601 A 24.823 24.823 0 0 1 532.399 21.573 A 22.825 22.825 0 0 1 538.7 20.701 Q 546.5 20.701 551.7 27.301 A 23.748 23.748 0 0 1 556.314 37.61 A 33.244 33.244 0 0 1 556.9 44.001 A 30.267 30.267 0 0 1 555.88 52.079 A 21.918 21.918 0 0 1 549 63.051 A 27.384 27.384 0 0 1 536.263 69.163 A 38.942 38.942 0 0 1 528.5 69.901 Q 521.207 69.901 515.662 67.927 A 27.924 27.924 0 0 1 515.05 67.701 Q 509.3 65.501 506.05 61.101 A 16.996 16.996 0 0 1 502.92 53.308 A 22.017 22.017 0 0 1 502.7 50.501 L 502.5 12.801 Q 502.5 6.601 505.5 3.701 A 10.093 10.093 0 0 1 510.708 1.056 A 14.553 14.553 0 0 1 513.5 0.801 A 18.761 18.761 0 0 1 516.528 1.028 Q 518.098 1.285 519.344 1.834 A 7.813 7.813 0 0 1 521.75 3.451 A 7.967 7.967 0 0 1 523.556 6.357 Q 524.024 7.616 524.233 9.184 A 20.651 20.651 0 0 1 524.4 11.901 Z M 400.8 32.501 L 400.8 58.501 Q 400.8 63.718 398.91 66.175 A 5.662 5.662 0 0 1 398.3 66.851 A 6.917 6.917 0 0 1 396.133 68.189 Q 394.075 69.022 390.908 69.169 A 30.38 30.38 0 0 1 389.5 69.201 A 18.18 18.18 0 0 1 386.482 68.969 Q 382.375 68.276 380.8 65.501 A 25.256 25.256 0 0 1 369.525 69.58 A 32.319 32.319 0 0 1 365.7 69.801 A 15.898 15.898 0 0 1 353.685 64.594 A 21.037 21.037 0 0 1 352.6 63.351 Q 348.075 57.737 347.488 48.526 A 44.441 44.441 0 0 1 347.4 45.701 A 41.041 41.041 0 0 1 348.009 38.413 Q 348.753 34.292 350.408 30.993 A 21.688 21.688 0 0 1 352.55 27.551 Q 357.7 20.801 365.7 20.801 A 22.431 22.431 0 0 1 378.626 24.934 A 29.105 29.105 0 0 1 380.7 26.501 A 9.568 9.568 0 0 1 383.47 23.24 Q 385.861 21.501 389.4 21.501 Q 393.211 21.501 395.826 22.671 A 9.429 9.429 0 0 1 397.8 23.851 A 6.703 6.703 0 0 1 399.798 26.537 Q 400.738 28.713 400.797 32.051 A 25.573 25.573 0 0 1 400.8 32.501 Z M 584.124 69.039 A 37.366 37.366 0 0 0 592.3 69.901 A 38.163 38.163 0 0 0 598.505 69.415 A 27.92 27.92 0 0 0 612.05 63.401 A 20.71 20.71 0 0 0 618.75 53.549 A 26.149 26.149 0 0 0 619.9 45.601 A 31.02 31.02 0 0 0 619.747 42.477 A 22.025 22.025 0 0 0 612.2 27.501 A 26.313 26.313 0 0 0 601.145 21.823 A 36.317 36.317 0 0 0 592.3 20.801 Q 580.1 20.801 572.3 27.501 Q 564.5 34.201 564.5 45.601 A 28.023 28.023 0 0 0 564.632 48.346 A 22.205 22.205 0 0 0 568.25 58.701 Q 572 64.301 578.25 67.101 A 30.751 30.751 0 0 0 584.124 69.039 Z M 323.1 38.401 L 323.1 58.501 Q 323.1 63.718 321.21 66.175 A 5.662 5.662 0 0 1 320.6 66.851 A 6.889 6.889 0 0 1 318.421 68.189 Q 315.9 69.201 311.7 69.201 Q 306.503 69.201 304.255 67.067 A 5.197 5.197 0 0 1 303.7 66.451 A 8.163 8.163 0 0 1 302.527 64.202 Q 301.6 61.584 301.6 57.401 L 301.6 32.801 A 16.284 16.284 0 0 1 301.864 29.8 A 12.153 12.153 0 0 1 302.8 26.851 Q 304 24.301 306.3 22.901 Q 308.6 21.501 311.7 21.501 Q 315.782 21.501 318.364 22.77 A 7.397 7.397 0 0 1 321.7 25.901 Q 327.5 21.501 332.9 21.501 A 15.919 15.919 0 0 1 336.992 21.979 Q 342.218 23.373 343.182 28.825 A 15.38 15.38 0 0 1 343.4 31.501 A 11.355 11.355 0 0 1 343.049 34.397 A 8.386 8.386 0 0 1 341.1 38.001 Q 338.8 40.501 335.1 40.501 A 8.831 8.831 0 0 1 333.688 40.394 Q 332.436 40.191 331.55 39.601 A 42.644 42.644 0 0 1 329.789 38.363 A 36.388 36.388 0 0 1 329.05 37.801 Q 327.9 36.901 326.4 36.901 A 5.119 5.119 0 0 0 325.075 37.062 A 3.496 3.496 0 0 0 323.1 38.401 Z M 431.6 32.501 L 431.6 58.501 Q 431.6 63.718 429.71 66.175 A 5.662 5.662 0 0 1 429.1 66.851 A 6.917 6.917 0 0 1 426.933 68.189 Q 424.875 69.022 421.708 69.169 A 30.38 30.38 0 0 1 420.3 69.201 Q 415.053 69.201 412.772 67.025 A 5.329 5.329 0 0 1 412.25 66.451 Q 410.305 63.962 410.12 58.568 A 34.04 34.04 0 0 1 410.1 57.401 L 410.1 32.801 A 15.363 15.363 0 0 1 410.483 29.274 A 10.56 10.56 0 0 1 412.85 24.601 A 9.062 9.062 0 0 1 419.011 21.555 A 12.632 12.632 0 0 1 420.2 21.501 Q 424.011 21.501 426.626 22.671 A 9.429 9.429 0 0 1 428.6 23.851 A 6.703 6.703 0 0 1 430.598 26.537 Q 431.538 28.713 431.597 32.051 A 25.573 25.573 0 0 1 431.6 32.501 Z M 596.298 36.656 A 21.509 21.509 0 0 0 596.2 36.351 A 11.087 11.087 0 0 0 595.574 34.812 Q 594.643 32.971 593.284 32.536 A 2.876 2.876 0 0 0 592.4 32.401 A 2.896 2.896 0 0 0 590.591 33.051 Q 590.157 33.388 589.757 33.9 A 7.059 7.059 0 0 0 589.4 34.401 A 12.201 12.201 0 0 0 588.217 36.78 Q 587.795 37.905 587.518 39.216 A 20.078 20.078 0 0 0 587.5 39.301 A 29.199 29.199 0 0 0 586.948 43.676 A 34.514 34.514 0 0 0 586.9 45.501 Q 586.9 50.426 588.206 54.186 A 19.428 19.428 0 0 0 588.3 54.451 A 10.477 10.477 0 0 0 588.996 55.998 Q 589.421 56.753 589.922 57.261 A 3.246 3.246 0 0 0 592.3 58.301 Q 594.9 58.301 596.2 54.501 Q 597.5 50.701 597.5 45.501 Q 597.5 40.501 596.298 36.656 Z M 412.082 2.706 A 6.4 6.4 0 0 0 409.9 7.601 A 8.789 8.789 0 0 0 410.029 9.136 A 5.901 5.901 0 0 0 413 13.401 Q 416.1 15.201 420.8 15.201 Q 424.27 15.201 426.646 14.499 A 9.468 9.468 0 0 0 428.95 13.501 A 5.311 5.311 0 0 0 430.46 12.114 Q 431.181 11.13 431.483 9.765 A 10.033 10.033 0 0 0 431.7 7.601 A 10.175 10.175 0 0 0 431.692 7.19 Q 431.402 0.001 420.8 0.001 A 21.664 21.664 0 0 0 418.629 0.105 Q 414.974 0.473 412.75 2.151 A 8.927 8.927 0 0 0 412.082 2.706 Z M 524.5 53.901 A 8.113 8.113 0 0 0 525.658 55.582 A 5.001 5.001 0 0 0 529.5 57.301 A 3.833 3.833 0 0 0 532.467 55.905 Q 532.982 55.324 533.412 54.502 A 10.134 10.134 0 0 0 533.7 53.901 A 17.378 17.378 0 0 0 534.981 49.323 A 22.766 22.766 0 0 0 535.2 46.101 Q 535.2 43.701 534.8 41.401 A 25.484 25.484 0 0 0 534.273 39.02 A 19.859 19.859 0 0 0 533.7 37.251 A 10.653 10.653 0 0 0 533.011 35.766 Q 532.55 34.952 531.977 34.332 A 6.604 6.604 0 0 0 531.9 34.251 A 4.067 4.067 0 0 0 530.995 33.528 A 3.144 3.144 0 0 0 529.4 33.101 Q 526.492 33.101 524.728 36.358 A 11.416 11.416 0 0 0 524.5 36.801 L 524.5 44.251 L 524.5 53.901 Z M 379.3 54.801 L 379.3 36.101 A 7.561 7.561 0 0 0 378.234 34.666 A 4.483 4.483 0 0 0 374.9 33.201 A 3.452 3.452 0 0 0 372.453 34.242 Q 371.463 35.19 370.7 37.001 A 20.032 20.032 0 0 0 369.365 41.901 A 26.303 26.303 0 0 0 369.1 45.701 Q 369.1 50.301 370.6 53.901 Q 372.1 57.501 374.8 57.501 A 4.869 4.869 0 0 0 378.624 55.718 A 7.435 7.435 0 0 0 379.3 54.801 Z" vector-effect="non-scaling-stroke"/></g></svg>