<svg width="604.301" height="69.201" viewBox="0 0 604.301 69.201" xmlns="http://www.w3.org/2000/svg"><g id="soColourful" stroke-linecap="round" fill-rule="evenodd" font-size="9pt" stroke="#000" stroke-width="0.25mm" fill="black" style="stroke:#000;stroke-width:0.25mm;fill:black"><path d="M 30.793 20.68 A 37.645 37.645 0 0 0 24 20.1 Q 18.783 20.1 14.523 21.178 A 24.777 24.777 0 0 0 6.75 24.55 A 19.361 19.361 0 0 0 4.661 26.155 A 12.685 12.685 0 0 0 0.1 36 Q 0.1 40.1 1.85 42.95 A 8.971 8.971 0 0 0 3.121 44.557 Q 4.073 45.521 5.398 46.351 A 19.343 19.343 0 0 0 8 47.7 A 17.014 17.014 0 0 0 9.719 48.662 Q 10.92 49.25 12.367 49.76 A 36.933 36.933 0 0 0 15.5 50.7 A 417.262 417.262 0 0 1 16.472 50.95 Q 20.506 51.99 23.1 52.75 A 10.775 10.775 0 0 1 24.015 53.06 Q 25.063 53.473 25.558 53.99 A 1.437 1.437 0 0 1 26 55 A 2.048 2.048 0 0 1 25.075 56.761 Q 24.158 57.408 22.334 57.609 A 16.82 16.82 0 0 1 20.5 57.7 Q 18.117 57.7 15.486 56.902 A 26.145 26.145 0 0 1 11.8 55.45 Q 8.349 53.798 6.191 53.359 A 7.063 7.063 0 0 0 4.8 53.2 A 8.645 8.645 0 0 0 4.107 53.227 Q 2.305 53.372 1.25 54.3 A 3.524 3.524 0 0 0 0.176 55.988 A 4.654 4.654 0 0 0 0 57.3 A 6.267 6.267 0 0 0 0.284 59.156 Q 0.646 60.333 1.474 61.48 A 12.648 12.648 0 0 0 3.1 63.3 Q 7.6 67.449 15.314 68.68 A 45.044 45.044 0 0 0 22.4 69.2 Q 29 69.2 34.15 67.75 A 35.664 35.664 0 0 0 36.112 67.138 Q 37.904 66.52 39.386 65.773 A 17.459 17.459 0 0 0 42.3 63.95 A 24.719 24.719 0 0 0 42.476 63.811 Q 45.345 61.522 46.8 58.95 A 12.852 12.852 0 0 0 47.456 57.622 A 10.255 10.255 0 0 0 48.3 53.6 A 21.21 21.21 0 0 0 48.297 53.253 Q 48.211 47.994 45.5 44.75 A 11.043 11.043 0 0 0 44.702 43.895 Q 42.686 41.946 39.023 40.155 A 48.728 48.728 0 0 0 35.2 38.5 A 16.457 16.457 0 0 0 34.44 38.146 Q 33.105 37.561 31.16 36.944 A 65.341 65.341 0 0 0 29.35 36.4 A 72.804 72.804 0 0 1 28.619 36.187 Q 26.438 35.539 24.911 34.927 A 18.913 18.913 0 0 1 23.5 34.3 A 6.257 6.257 0 0 1 23.304 34.198 Q 21.5 33.215 21.5 31.6 A 2.048 2.048 0 0 1 21.929 30.273 Q 22.793 29.2 25.4 29.2 Q 28.3 29.2 30.9 30.2 Q 32.444 30.794 33.635 31.458 A 12.961 12.961 0 0 1 35.1 32.4 Q 36.7 33.6 38.5 34.65 Q 39.485 35.224 40.379 35.485 A 5.085 5.085 0 0 0 41.8 35.7 A 4.967 4.967 0 0 0 42.165 35.687 A 3.712 3.712 0 0 0 44.6 34.6 A 4.447 4.447 0 0 0 45.144 33.948 A 3.069 3.069 0 0 0 45.7 32.2 Q 45.7 27.7 39.5 23.9 A 22.156 22.156 0 0 0 38.043 23.082 Q 34.798 21.415 30.793 20.68 Z M 175.4 31.1 A 2.907 2.907 0 0 0 175.257 30.148 Q 174.81 28.854 172.957 28.802 A 5.614 5.614 0 0 0 172.8 28.8 A 3.459 3.459 0 0 0 170.688 29.538 Q 170.18 29.918 169.71 30.494 A 7.896 7.896 0 0 0 169.4 30.9 Q 167.9 33 167.1 36.15 Q 166.3 39.3 166.3 42.7 A 13.334 13.334 0 0 0 166.784 46.383 A 10.201 10.201 0 0 0 169.35 50.8 A 10.147 10.147 0 0 0 174.809 53.648 A 14.739 14.739 0 0 0 177.6 53.9 Q 182.7 53.9 186.4 52.7 A 12.283 12.283 0 0 0 187.508 52.343 Q 188.639 51.922 190.05 51.2 Q 192.054 50.175 192.972 50.105 A 1.695 1.695 0 0 1 193.1 50.1 Q 194.5 50.1 195.4 50.6 A 3.924 3.924 0 0 1 195.987 50.994 Q 196.429 51.357 196.65 51.8 Q 197 52.5 197 53.3 Q 197 54.252 196.561 55.481 A 13.22 13.22 0 0 1 196.05 56.7 A 13.765 13.765 0 0 1 195.018 58.489 Q 194.436 59.351 193.674 60.247 A 25.797 25.797 0 0 1 193.1 60.9 A 26.941 26.941 0 0 1 189.421 64.244 A 30.807 30.807 0 0 1 188.45 64.95 Q 185.8 66.8 181.9 68 A 27.726 27.726 0 0 1 173.704 69.2 L 173.7 69.2 A 37.89 37.89 0 0 1 164.434 68.124 A 27.763 27.763 0 0 1 153.3 62.55 A 21.722 21.722 0 0 1 145.458 47.465 A 30.831 30.831 0 0 1 145.3 44.3 A 25.367 25.367 0 0 1 146.271 37.161 A 21.457 21.457 0 0 1 148.95 31.35 A 22.798 22.798 0 0 1 158.801 23.04 A 27.249 27.249 0 0 1 159 22.95 Q 165.4 20.1 173.7 20.1 Q 181.6 20.1 186.75 21.95 Q 191.9 23.8 194.1 26.9 A 11.883 11.883 0 0 1 196.187 32.413 A 15.358 15.358 0 0 1 196.3 34.3 Q 196.3 36.2 195.55 38.2 A 13.882 13.882 0 0 1 194.387 40.56 A 18.016 18.016 0 0 1 193.25 42.2 A 9.118 9.118 0 0 1 191.23 44.089 Q 190.13 44.855 188.7 45.45 A 15.726 15.726 0 0 1 185.12 46.444 A 21.692 21.692 0 0 1 181.7 46.7 Q 180.491 46.7 179.575 46.61 A 11.304 11.304 0 0 1 178.75 46.5 A 7.353 7.353 0 0 1 177.43 46.135 A 9.808 9.808 0 0 1 176.35 45.65 A 3.755 3.755 0 0 1 174.817 44.157 A 5.07 5.07 0 0 1 174.5 43.5 Q 174.034 42.334 173.93 40.685 A 15.682 15.682 0 0 1 173.9 39.7 Q 173.9 37.7 174.65 34.85 A 59.523 59.523 0 0 0 174.942 33.697 Q 175.316 32.15 175.385 31.398 A 3.327 3.327 0 0 0 175.4 31.1 Z M 384.9 29.1 L 385 47.4 Q 385 53.1 389.4 53.1 Q 390.9 53.1 392.05 52.15 A 5.255 5.255 0 0 0 393.248 50.714 A 7.193 7.193 0 0 0 393.8 49.5 A 10.212 10.212 0 0 0 394.277 47.491 A 13.863 13.863 0 0 0 394.4 45.6 L 394.4 32.2 A 16.284 16.284 0 0 1 394.664 29.2 A 12.153 12.153 0 0 1 395.6 26.25 Q 396.8 23.7 399.1 22.3 Q 401.4 20.9 404.5 20.9 Q 408.311 20.9 410.926 22.07 A 9.429 9.429 0 0 1 412.9 23.25 A 6.703 6.703 0 0 1 414.898 25.936 Q 415.838 28.113 415.896 31.45 A 25.573 25.573 0 0 1 415.9 31.9 L 415.9 57.9 A 23.432 23.432 0 0 1 415.744 60.713 Q 415.376 63.744 414.142 65.459 A 5.517 5.517 0 0 1 413.4 66.3 Q 410.9 68.6 404.6 68.6 A 22.379 22.379 0 0 1 402.688 68.523 Q 401.703 68.438 400.854 68.261 A 11.531 11.531 0 0 1 400 68.05 Q 398.143 67.513 397.002 66.449 A 5.549 5.549 0 0 1 396.95 66.4 A 6.314 6.314 0 0 1 395.731 64.758 A 8.426 8.426 0 0 1 395.2 63.5 Q 391.1 66.2 386.55 67.3 A 38.444 38.444 0 0 1 381.099 68.19 A 50.444 50.444 0 0 1 376.4 68.4 Q 369.3 68.4 366.2 62.85 Q 363.598 58.192 363.18 48.497 A 90.586 90.586 0 0 1 363.1 44.6 Q 363.1 38.3 363.4 34.35 A 62.124 62.124 0 0 1 363.674 31.542 Q 363.944 29.332 364.35 27.55 Q 364.777 25.68 365.505 24.434 A 5.943 5.943 0 0 1 366.35 23.3 Q 367.7 21.9 369.55 21.3 A 10.503 10.503 0 0 1 371.028 20.947 Q 371.799 20.816 372.702 20.754 A 25.135 25.135 0 0 1 374.4 20.7 Q 379.374 20.7 381.863 22.357 A 6.064 6.064 0 0 1 382.45 22.8 A 6.672 6.672 0 0 1 384.526 26.139 Q 384.83 27.212 384.887 28.496 A 13.634 13.634 0 0 1 384.9 29.1 Z M 541.6 29.1 L 541.7 47.4 Q 541.7 53.1 546.1 53.1 Q 547.6 53.1 548.75 52.15 A 5.255 5.255 0 0 0 549.948 50.714 A 7.193 7.193 0 0 0 550.5 49.5 A 10.212 10.212 0 0 0 550.977 47.491 A 13.863 13.863 0 0 0 551.1 45.6 L 551.1 32.2 A 16.284 16.284 0 0 1 551.364 29.2 A 12.153 12.153 0 0 1 552.3 26.25 Q 553.5 23.7 555.8 22.3 Q 558.1 20.9 561.2 20.9 Q 565.011 20.9 567.626 22.07 A 9.429 9.429 0 0 1 569.6 23.25 A 6.703 6.703 0 0 1 571.598 25.936 Q 572.538 28.113 572.596 31.45 A 25.573 25.573 0 0 1 572.6 31.9 L 572.6 57.9 A 23.432 23.432 0 0 1 572.444 60.713 Q 572.076 63.744 570.842 65.459 A 5.517 5.517 0 0 1 570.1 66.3 Q 567.6 68.6 561.3 68.6 A 22.379 22.379 0 0 1 559.388 68.523 Q 558.403 68.438 557.554 68.261 A 11.531 11.531 0 0 1 556.7 68.05 Q 554.843 67.513 553.702 66.449 A 5.549 5.549 0 0 1 553.65 66.4 A 6.314 6.314 0 0 1 552.431 64.758 A 8.426 8.426 0 0 1 551.9 63.5 Q 547.8 66.2 543.25 67.3 A 38.444 38.444 0 0 1 537.799 68.19 A 50.444 50.444 0 0 1 533.1 68.4 Q 526 68.4 522.9 62.85 Q 520.298 58.192 519.88 48.497 A 90.586 90.586 0 0 1 519.8 44.6 Q 519.8 38.3 520.1 34.35 A 62.124 62.124 0 0 1 520.374 31.542 Q 520.644 29.332 521.05 27.55 Q 521.477 25.68 522.205 24.434 A 5.943 5.943 0 0 1 523.05 23.3 Q 524.4 21.9 526.25 21.3 A 10.503 10.503 0 0 1 527.728 20.947 Q 528.499 20.816 529.402 20.754 A 25.135 25.135 0 0 1 531.1 20.7 Q 536.074 20.7 538.563 22.357 A 6.064 6.064 0 0 1 539.15 22.8 A 6.672 6.672 0 0 1 541.226 26.139 Q 541.53 27.212 541.587 28.496 A 13.634 13.634 0 0 1 541.6 29.1 Z M 500 36 L 500 53.5 Q 500 60.17 498.369 63.607 A 8.048 8.048 0 0 1 497.35 65.25 Q 494.7 68.5 489 68.5 A 15.735 15.735 0 0 1 485.94 68.223 Q 484.181 67.873 482.84 67.085 A 7.656 7.656 0 0 1 480.8 65.35 Q 478.2 62.2 478.2 54.2 L 478.3 36 A 14.141 14.141 0 0 1 475.599 35.729 Q 471.26 34.818 470.928 30.874 A 8.038 8.038 0 0 1 470.9 30.2 A 6.599 6.599 0 0 1 471.461 27.385 Q 472.951 24.191 478.4 23.9 Q 478.5 11 482.15 5.55 A 10.797 10.797 0 0 1 487.055 1.638 Q 488.978 0.821 491.439 0.438 A 31.052 31.052 0 0 1 496.2 0.1 Q 504.5 0.1 509.15 3.5 A 18.395 18.395 0 0 1 511.185 5.207 Q 513.519 7.499 513.77 9.837 A 5.277 5.277 0 0 1 513.8 10.4 A 3.364 3.364 0 0 1 512.947 12.64 A 4.725 4.725 0 0 1 512.55 13.05 A 4.077 4.077 0 0 1 510.933 13.945 Q 510.083 14.2 509 14.2 Q 504.983 14.2 502.915 15.343 A 4.947 4.947 0 0 0 502.1 15.9 Q 500.008 17.594 500 23.756 A 36.314 36.314 0 0 0 500 23.8 A 56.65 56.65 0 0 1 503.072 23.877 Q 507.345 24.11 509.3 25.05 Q 511.506 26.111 511.84 29.295 A 11.557 11.557 0 0 1 511.9 30.5 Q 511.9 33.842 509.195 34.914 A 5.533 5.533 0 0 1 509.1 34.95 A 11.997 11.997 0 0 1 507.248 35.458 Q 504.528 36 500 36 Z M 74.624 68.339 A 37.366 37.366 0 0 0 82.8 69.2 A 38.163 38.163 0 0 0 89.005 68.714 A 27.92 27.92 0 0 0 102.55 62.7 A 20.71 20.71 0 0 0 109.25 52.848 A 26.149 26.149 0 0 0 110.4 44.9 A 31.02 31.02 0 0 0 110.247 41.776 A 22.025 22.025 0 0 0 102.7 26.8 A 26.313 26.313 0 0 0 91.645 21.123 A 36.317 36.317 0 0 0 82.8 20.1 Q 70.6 20.1 62.8 26.8 Q 55 33.5 55 44.9 A 28.023 28.023 0 0 0 55.132 47.646 A 22.205 22.205 0 0 0 58.75 58 Q 62.5 63.6 68.75 66.4 A 30.751 30.751 0 0 0 74.624 68.339 Z M 224.624 68.339 A 37.366 37.366 0 0 0 232.8 69.2 A 38.163 38.163 0 0 0 239.005 68.714 A 27.92 27.92 0 0 0 252.55 62.7 A 20.71 20.71 0 0 0 259.25 52.848 A 26.149 26.149 0 0 0 260.4 44.9 A 31.02 31.02 0 0 0 260.247 41.776 A 22.025 22.025 0 0 0 252.7 26.8 A 26.313 26.313 0 0 0 241.645 21.123 A 36.317 36.317 0 0 0 232.8 20.1 Q 220.6 20.1 212.8 26.8 Q 205 33.5 205 44.9 A 28.023 28.023 0 0 0 205.132 47.646 A 22.205 22.205 0 0 0 208.75 58 Q 212.5 63.6 218.75 66.4 A 30.751 30.751 0 0 0 224.624 68.339 Z M 318.924 68.339 A 37.366 37.366 0 0 0 327.1 69.2 A 38.163 38.163 0 0 0 333.305 68.714 A 27.92 27.92 0 0 0 346.85 62.7 A 20.71 20.71 0 0 0 353.55 52.848 A 26.149 26.149 0 0 0 354.7 44.9 A 31.02 31.02 0 0 0 354.547 41.776 A 22.025 22.025 0 0 0 347 26.8 A 26.313 26.313 0 0 0 335.945 21.123 A 36.317 36.317 0 0 0 327.1 20.1 Q 314.9 20.1 307.1 26.8 Q 299.3 33.5 299.3 44.9 A 28.023 28.023 0 0 0 299.432 47.646 A 22.205 22.205 0 0 0 303.05 58 Q 306.8 63.6 313.05 66.4 A 30.751 30.751 0 0 0 318.924 68.339 Z M 447.1 37.7 L 447.1 57.8 Q 447.1 63.018 445.21 65.475 A 5.662 5.662 0 0 1 444.6 66.15 A 6.889 6.889 0 0 1 442.421 67.488 Q 439.9 68.5 435.7 68.5 Q 430.503 68.5 428.254 66.366 A 5.197 5.197 0 0 1 427.7 65.75 A 8.163 8.163 0 0 1 426.526 63.502 Q 425.6 60.884 425.6 56.7 L 425.6 32.1 A 16.284 16.284 0 0 1 425.864 29.1 A 12.153 12.153 0 0 1 426.8 26.15 Q 428 23.6 430.3 22.2 Q 432.6 20.8 435.7 20.8 Q 439.782 20.8 442.364 22.07 A 7.397 7.397 0 0 1 445.7 25.2 Q 451.5 20.8 456.9 20.8 A 15.919 15.919 0 0 1 460.992 21.279 Q 466.217 22.672 467.182 28.124 A 15.38 15.38 0 0 1 467.4 30.8 A 11.355 11.355 0 0 1 467.049 33.696 A 8.386 8.386 0 0 1 465.1 37.3 Q 462.8 39.8 459.1 39.8 A 8.831 8.831 0 0 1 457.688 39.694 Q 456.436 39.491 455.55 38.9 A 42.644 42.644 0 0 1 453.788 37.663 A 36.388 36.388 0 0 1 453.05 37.1 Q 451.9 36.2 450.4 36.2 A 5.119 5.119 0 0 0 449.075 36.362 A 3.496 3.496 0 0 0 447.1 37.7 Z M 290.8 11.1 L 290.8 53.4 Q 290.8 61.5 288.1 65 Q 285.457 68.427 280.034 68.499 A 17.632 17.632 0 0 1 279.8 68.5 A 15.735 15.735 0 0 1 276.74 68.223 Q 274.981 67.873 273.64 67.085 A 7.656 7.656 0 0 1 271.6 65.35 Q 269 62.2 269 54.2 L 268.8 12 Q 268.8 9.583 269.276 7.684 A 12.762 12.762 0 0 1 269.35 7.4 Q 269.9 5.4 270.85 4 Q 271.8 2.6 273.2 1.7 Q 274.6 0.8 276.25 0.4 A 14.262 14.262 0 0 1 278.637 0.039 A 16.992 16.992 0 0 1 279.8 0 A 21.95 21.95 0 0 1 282.823 0.194 Q 286.117 0.653 288.05 2.2 A 5.839 5.839 0 0 1 289.672 4.363 Q 290.586 6.344 290.76 9.538 A 28.833 28.833 0 0 1 290.8 11.1 Z M 604.3 11.1 L 604.3 53.4 Q 604.3 61.5 601.6 65 Q 598.957 68.427 593.534 68.499 A 17.632 17.632 0 0 1 593.3 68.5 A 15.735 15.735 0 0 1 590.24 68.223 Q 588.481 67.873 587.14 67.085 A 7.656 7.656 0 0 1 585.1 65.35 Q 582.5 62.2 582.5 54.2 L 582.3 12 Q 582.3 9.583 582.776 7.684 A 12.762 12.762 0 0 1 582.85 7.4 Q 583.4 5.4 584.35 4 Q 585.3 2.6 586.7 1.7 Q 588.1 0.8 589.75 0.4 A 14.262 14.262 0 0 1 592.137 0.039 A 16.992 16.992 0 0 1 593.3 0 A 21.95 21.95 0 0 1 596.323 0.194 Q 599.617 0.653 601.55 2.2 A 5.839 5.839 0 0 1 603.172 4.363 Q 604.086 6.344 604.26 9.538 A 28.833 28.833 0 0 1 604.3 11.1 Z M 86.798 35.956 A 21.509 21.509 0 0 0 86.7 35.65 A 11.087 11.087 0 0 0 86.074 34.111 Q 85.142 32.271 83.784 31.835 A 2.876 2.876 0 0 0 82.9 31.7 A 2.896 2.896 0 0 0 81.091 32.351 Q 80.656 32.688 80.257 33.199 A 7.059 7.059 0 0 0 79.9 33.7 A 12.201 12.201 0 0 0 78.717 36.079 Q 78.295 37.205 78.018 38.516 A 20.078 20.078 0 0 0 78 38.6 A 29.199 29.199 0 0 0 77.448 42.976 A 34.514 34.514 0 0 0 77.4 44.8 Q 77.4 49.726 78.706 53.486 A 19.428 19.428 0 0 0 78.8 53.75 A 10.477 10.477 0 0 0 79.496 55.297 Q 79.92 56.053 80.422 56.561 A 3.246 3.246 0 0 0 82.8 57.6 Q 85.4 57.6 86.7 53.8 Q 88 50 88 44.8 Q 88 39.8 86.798 35.956 Z M 236.798 35.956 A 21.509 21.509 0 0 0 236.7 35.65 A 11.087 11.087 0 0 0 236.074 34.111 Q 235.142 32.271 233.784 31.835 A 2.876 2.876 0 0 0 232.9 31.7 A 2.896 2.896 0 0 0 231.091 32.351 Q 230.656 32.688 230.257 33.199 A 7.059 7.059 0 0 0 229.9 33.7 A 12.201 12.201 0 0 0 228.717 36.079 Q 228.295 37.205 228.018 38.516 A 20.078 20.078 0 0 0 228 38.6 A 29.199 29.199 0 0 0 227.448 42.976 A 34.514 34.514 0 0 0 227.4 44.8 Q 227.4 49.726 228.706 53.486 A 19.428 19.428 0 0 0 228.8 53.75 A 10.477 10.477 0 0 0 229.496 55.297 Q 229.92 56.053 230.422 56.561 A 3.246 3.246 0 0 0 232.8 57.6 Q 235.4 57.6 236.7 53.8 Q 238 50 238 44.8 Q 238 39.8 236.798 35.956 Z M 331.098 35.956 A 21.509 21.509 0 0 0 331 35.65 A 11.087 11.087 0 0 0 330.374 34.111 Q 329.442 32.271 328.084 31.835 A 2.876 2.876 0 0 0 327.2 31.7 A 2.896 2.896 0 0 0 325.391 32.351 Q 324.956 32.688 324.557 33.199 A 7.059 7.059 0 0 0 324.2 33.7 A 12.201 12.201 0 0 0 323.017 36.079 Q 322.595 37.205 322.318 38.516 A 20.078 20.078 0 0 0 322.3 38.6 A 29.199 29.199 0 0 0 321.748 42.976 A 34.514 34.514 0 0 0 321.7 44.8 Q 321.7 49.726 323.006 53.486 A 19.428 19.428 0 0 0 323.1 53.75 A 10.477 10.477 0 0 0 323.796 55.297 Q 324.22 56.053 324.722 56.561 A 3.246 3.246 0 0 0 327.1 57.6 Q 329.7 57.6 331 53.8 Q 332.3 50 332.3 44.8 Q 332.3 39.8 331.098 35.956 Z" vector-effect="non-scaling-stroke"/></g></svg>