<svg width="534.2" height="89.401" viewBox="0 0 534.2 89.401" xmlns="http://www.w3.org/2000/svg"><g id="veryFancy" stroke-linecap="round" fill-rule="evenodd" font-size="9pt" stroke="#000" stroke-width="0.25mm" fill="black" style="stroke:#000;stroke-width:0.25mm;fill:black"><path d="M 190 29.601 L 190.1 45.701 L 190.1 48.051 Q 190.1 48.801 190.25 49.901 A 11.165 11.165 0 0 0 190.331 50.413 Q 190.463 51.126 190.65 51.501 A 4.733 4.733 0 0 0 190.928 51.98 Q 191.111 52.258 191.35 52.551 A 2.205 2.205 0 0 0 192.364 53.244 A 2.766 2.766 0 0 0 192.55 53.301 Q 193.3 53.501 194.4 53.501 A 8.354 8.354 0 0 0 195.673 53.411 Q 197.574 53.117 198.15 51.851 Q 198.874 50.257 198.899 46.099 A 49.993 49.993 0 0 0 198.9 45.801 L 199 29.601 A 14.976 14.976 0 0 1 199.124 27.611 Q 199.361 25.847 200.05 24.601 A 5.894 5.894 0 0 1 201.899 22.598 Q 202.637 22.087 203.585 21.707 A 10.501 10.501 0 0 1 203.6 21.701 A 11.687 11.687 0 0 1 205.532 21.131 Q 207.562 20.704 210.356 20.701 A 36.701 36.701 0 0 1 210.4 20.701 Q 212.711 20.701 214.429 21.372 A 7.855 7.855 0 0 1 214.85 21.551 Q 216.7 22.401 217.8 23.751 A 6.126 6.126 0 0 1 218.548 24.946 Q 218.844 25.556 219.081 26.309 A 15.064 15.064 0 0 1 219.45 27.751 Q 220 30.401 220.2 33.101 A 59.453 59.453 0 0 1 220.306 34.954 Q 220.4 37.176 220.4 40.201 A 462.151 462.151 0 0 1 220.338 48.078 Q 220.16 58.496 219.467 63.622 A 40.897 40.897 0 0 1 219.4 64.101 Q 218.6 70.201 216.9 74.651 Q 215.2 79.101 212.1 82.551 A 18.354 18.354 0 0 1 205.8 87.064 A 22.26 22.26 0 0 1 204.2 87.701 Q 199.878 89.231 194.097 89.384 A 49.199 49.199 0 0 1 192.8 89.401 A 31.898 31.898 0 0 1 186.017 88.701 A 27.786 27.786 0 0 1 182.95 87.851 A 30.088 30.088 0 0 1 179.805 86.59 Q 177.406 85.457 175.75 84.051 A 28.861 28.861 0 0 1 173.685 82.126 Q 172.456 80.855 171.6 79.601 A 12.664 12.664 0 0 1 170.875 78.411 Q 170.1 76.951 170.1 75.801 A 4.657 4.657 0 0 1 171.023 73.02 A 5.814 5.814 0 0 1 171.15 72.851 A 3.359 3.359 0 0 1 173.602 71.518 A 4.482 4.482 0 0 1 174 71.501 A 5.246 5.246 0 0 1 175.084 71.623 Q 175.984 71.813 177.05 72.301 Q 178.8 73.101 180.4 74.101 Q 181.975 75.085 184.131 75.876 A 27.766 27.766 0 0 0 184.2 75.901 Q 186.4 76.701 188.5 76.701 Q 193.9 76.701 196.15 74.001 A 8.854 8.854 0 0 0 197.765 70.964 Q 198.177 69.662 198.322 68.088 A 19.537 19.537 0 0 0 198.4 66.301 A 41.5 41.5 0 0 1 195.906 67.238 A 36.125 36.125 0 0 1 195.1 67.501 Q 193.5 68.001 192 68.301 Q 190.5 68.601 189.15 68.701 Q 187.8 68.801 186.5 68.801 A 17.615 17.615 0 0 1 181.183 68.026 A 14.947 14.947 0 0 1 176.4 65.501 Q 172.2 62.201 170.35 57.351 A 28.624 28.624 0 0 1 168.529 48.289 A 33.083 33.083 0 0 1 168.5 46.901 A 350.415 350.415 0 0 1 168.521 42.94 Q 168.539 41.389 168.571 40.004 A 172.171 172.171 0 0 1 168.65 37.401 A 68.285 68.285 0 0 1 168.868 33.931 Q 169.034 32.071 169.3 30.451 A 45.124 45.124 0 0 1 169.627 28.666 Q 169.991 26.897 170.421 25.681 A 13.206 13.206 0 0 1 170.45 25.601 A 8.477 8.477 0 0 1 171.267 23.917 A 6.827 6.827 0 0 1 172.3 22.651 A 6.372 6.372 0 0 1 174.092 21.424 A 5.905 5.905 0 0 1 175 21.101 Q 176.261 20.764 177.946 20.711 A 20.585 20.585 0 0 1 178.6 20.701 Q 183.765 20.701 186.409 22.146 A 6.278 6.278 0 0 1 187.45 22.851 Q 189.657 24.711 189.954 28.407 A 14.91 14.91 0 0 1 190 29.601 Z M 503.8 29.601 L 503.9 45.701 L 503.9 48.051 Q 503.9 48.801 504.05 49.901 A 11.165 11.165 0 0 0 504.131 50.413 Q 504.263 51.126 504.45 51.501 A 4.733 4.733 0 0 0 504.728 51.98 Q 504.911 52.258 505.15 52.551 A 2.205 2.205 0 0 0 506.164 53.244 A 2.766 2.766 0 0 0 506.35 53.301 Q 507.1 53.501 508.2 53.501 A 8.354 8.354 0 0 0 509.473 53.411 Q 511.374 53.117 511.95 51.851 Q 512.674 50.257 512.699 46.099 A 49.993 49.993 0 0 0 512.7 45.801 L 512.8 29.601 A 14.976 14.976 0 0 1 512.924 27.611 Q 513.161 25.847 513.85 24.601 A 5.894 5.894 0 0 1 515.699 22.598 Q 516.437 22.087 517.385 21.707 A 10.501 10.501 0 0 1 517.4 21.701 A 11.687 11.687 0 0 1 519.332 21.131 Q 521.362 20.704 524.156 20.701 A 36.701 36.701 0 0 1 524.2 20.701 Q 526.511 20.701 528.229 21.372 A 7.855 7.855 0 0 1 528.65 21.551 Q 530.5 22.401 531.6 23.751 A 6.126 6.126 0 0 1 532.348 24.946 Q 532.644 25.556 532.881 26.309 A 15.064 15.064 0 0 1 533.25 27.751 Q 533.8 30.401 534 33.101 A 59.453 59.453 0 0 1 534.106 34.954 Q 534.2 37.176 534.2 40.201 A 462.151 462.151 0 0 1 534.138 48.078 Q 533.96 58.496 533.267 63.622 A 40.897 40.897 0 0 1 533.2 64.101 Q 532.4 70.201 530.7 74.651 Q 529 79.101 525.9 82.551 A 18.354 18.354 0 0 1 519.6 87.064 A 22.26 22.26 0 0 1 518 87.701 Q 513.678 89.231 507.897 89.384 A 49.199 49.199 0 0 1 506.6 89.401 A 31.898 31.898 0 0 1 499.817 88.701 A 27.786 27.786 0 0 1 496.75 87.851 A 30.088 30.088 0 0 1 493.605 86.59 Q 491.206 85.457 489.55 84.051 A 28.861 28.861 0 0 1 487.485 82.126 Q 486.256 80.855 485.4 79.601 A 12.664 12.664 0 0 1 484.675 78.411 Q 483.9 76.951 483.9 75.801 A 4.657 4.657 0 0 1 484.823 73.02 A 5.814 5.814 0 0 1 484.95 72.851 A 3.359 3.359 0 0 1 487.402 71.518 A 4.482 4.482 0 0 1 487.8 71.501 A 5.246 5.246 0 0 1 488.884 71.623 Q 489.784 71.813 490.85 72.301 Q 492.6 73.101 494.2 74.101 Q 495.775 75.085 497.931 75.876 A 27.766 27.766 0 0 0 498 75.901 Q 500.2 76.701 502.3 76.701 Q 507.7 76.701 509.95 74.001 A 8.854 8.854 0 0 0 511.565 70.964 Q 511.977 69.662 512.122 68.088 A 19.537 19.537 0 0 0 512.2 66.301 A 41.5 41.5 0 0 1 509.706 67.238 A 36.125 36.125 0 0 1 508.9 67.501 Q 507.3 68.001 505.8 68.301 Q 504.3 68.601 502.95 68.701 Q 501.6 68.801 500.3 68.801 A 17.615 17.615 0 0 1 494.983 68.026 A 14.947 14.947 0 0 1 490.2 65.501 Q 486 62.201 484.15 57.351 A 28.624 28.624 0 0 1 482.329 48.289 A 33.083 33.083 0 0 1 482.3 46.901 A 350.415 350.415 0 0 1 482.321 42.94 Q 482.339 41.389 482.371 40.004 A 172.171 172.171 0 0 1 482.45 37.401 A 68.285 68.285 0 0 1 482.668 33.931 Q 482.834 32.071 483.1 30.451 A 45.124 45.124 0 0 1 483.427 28.666 Q 483.791 26.897 484.221 25.681 A 13.206 13.206 0 0 1 484.25 25.601 A 8.477 8.477 0 0 1 485.067 23.917 A 6.827 6.827 0 0 1 486.1 22.651 A 6.372 6.372 0 0 1 487.892 21.424 A 5.905 5.905 0 0 1 488.8 21.101 Q 490.061 20.764 491.746 20.711 A 20.585 20.585 0 0 1 492.4 20.701 Q 497.565 20.701 500.209 22.146 A 6.278 6.278 0 0 1 501.25 22.851 Q 503.457 24.711 503.754 28.407 A 14.91 14.91 0 0 1 503.8 29.601 Z M 452.1 31.001 A 2.907 2.907 0 0 0 451.957 30.049 Q 451.509 28.755 449.657 28.703 A 5.614 5.614 0 0 0 449.5 28.701 A 3.459 3.459 0 0 0 447.388 29.438 Q 446.88 29.819 446.41 30.395 A 7.896 7.896 0 0 0 446.1 30.801 Q 444.6 32.901 443.8 36.051 Q 443 39.201 443 42.601 A 13.334 13.334 0 0 0 443.484 46.283 A 10.201 10.201 0 0 0 446.05 50.701 A 10.147 10.147 0 0 0 451.509 53.548 A 14.739 14.739 0 0 0 454.3 53.801 Q 459.4 53.801 463.1 52.601 A 12.283 12.283 0 0 0 464.208 52.243 Q 465.339 51.822 466.75 51.101 Q 468.754 50.075 469.672 50.006 A 1.695 1.695 0 0 1 469.8 50.001 Q 471.2 50.001 472.1 50.501 A 3.924 3.924 0 0 1 472.687 50.895 Q 473.129 51.258 473.35 51.701 Q 473.7 52.401 473.7 53.201 Q 473.7 54.152 473.261 55.381 A 13.22 13.22 0 0 1 472.75 56.601 A 13.765 13.765 0 0 1 471.718 58.389 Q 471.136 59.251 470.374 60.148 A 25.797 25.797 0 0 1 469.8 60.801 A 26.941 26.941 0 0 1 466.121 64.145 A 30.807 30.807 0 0 1 465.15 64.851 Q 462.5 66.701 458.6 67.901 A 27.726 27.726 0 0 1 450.404 69.101 L 450.4 69.101 A 37.89 37.89 0 0 1 441.134 68.024 A 27.763 27.763 0 0 1 430 62.451 A 21.722 21.722 0 0 1 422.158 47.365 A 30.831 30.831 0 0 1 422 44.201 A 25.367 25.367 0 0 1 422.971 37.061 A 21.457 21.457 0 0 1 425.65 31.251 A 22.798 22.798 0 0 1 435.501 22.94 A 27.249 27.249 0 0 1 435.7 22.851 Q 442.1 20.001 450.4 20.001 Q 458.3 20.001 463.45 21.851 Q 468.6 23.701 470.8 26.801 A 11.883 11.883 0 0 1 472.887 32.314 A 15.358 15.358 0 0 1 473 34.201 Q 473 36.101 472.25 38.101 A 13.882 13.882 0 0 1 471.087 40.46 A 18.016 18.016 0 0 1 469.95 42.101 A 9.118 9.118 0 0 1 467.93 43.989 Q 466.83 44.755 465.4 45.351 A 15.726 15.726 0 0 1 461.82 46.344 A 21.692 21.692 0 0 1 458.4 46.601 Q 457.191 46.601 456.275 46.51 A 11.304 11.304 0 0 1 455.45 46.401 A 7.353 7.353 0 0 1 454.129 46.035 A 9.808 9.808 0 0 1 453.05 45.551 A 3.755 3.755 0 0 1 451.517 44.057 A 5.07 5.07 0 0 1 451.2 43.401 Q 450.734 42.235 450.63 40.585 A 15.682 15.682 0 0 1 450.6 39.601 Q 450.6 37.601 451.35 34.751 A 59.523 59.523 0 0 0 451.642 33.597 Q 452.016 32.05 452.085 31.298 A 3.327 3.327 0 0 0 452.1 31.001 Z M 392.7 60.101 L 392.6 41.501 A 10.457 10.457 0 0 0 392.419 39.457 Q 391.776 36.248 388.859 35.935 A 6.164 6.164 0 0 0 388.2 35.901 A 4.099 4.099 0 0 0 385.077 37.264 A 5.472 5.472 0 0 0 384.75 37.651 Q 383.543 39.215 383.255 41.699 A 13.002 13.002 0 0 0 383.2 42.301 L 383.2 57.701 A 23.432 23.432 0 0 1 383.044 60.513 Q 382.676 63.544 381.442 65.259 A 5.517 5.517 0 0 1 380.7 66.101 Q 378.2 68.401 371.9 68.401 Q 366.652 68.401 364.371 66.225 A 5.329 5.329 0 0 1 363.85 65.651 Q 361.905 63.162 361.72 57.768 A 34.04 34.04 0 0 1 361.7 56.601 L 361.7 32.001 A 15.363 15.363 0 0 1 362.083 28.474 A 10.56 10.56 0 0 1 364.45 23.801 A 9.062 9.062 0 0 1 370.611 20.755 A 12.632 12.632 0 0 1 371.8 20.701 Q 374.913 20.701 377.22 21.439 A 11.523 11.523 0 0 1 378.2 21.801 Q 380.8 22.901 382.1 25.601 A 30.676 30.676 0 0 1 393.411 21.174 A 42.035 42.035 0 0 1 401.1 20.501 Q 408.2 20.501 411.35 26.101 A 18.425 18.425 0 0 1 412.943 30.06 Q 414.144 34.257 414.419 40.573 A 90.569 90.569 0 0 1 414.5 44.501 Q 414.5 50.801 414.2 54.751 A 62.124 62.124 0 0 1 413.926 57.558 Q 413.656 59.769 413.25 61.551 Q 412.6 64.401 411.2 65.801 Q 409.8 67.201 407.95 67.801 A 10.706 10.706 0 0 1 406.415 68.166 Q 405.626 68.298 404.708 68.356 A 24.095 24.095 0 0 1 403.2 68.401 Q 398.227 68.401 395.738 66.744 A 6.064 6.064 0 0 1 395.15 66.301 A 6.724 6.724 0 0 1 393.016 62.789 Q 392.725 61.669 392.702 60.329 A 13.444 13.444 0 0 1 392.7 60.101 Z M 30.8 45.701 L 30.9 29.601 A 14.976 14.976 0 0 1 31.024 27.611 Q 31.261 25.847 31.95 24.601 A 5.894 5.894 0 0 1 33.799 22.598 Q 34.537 22.087 35.485 21.707 A 10.501 10.501 0 0 1 35.5 21.701 Q 37.249 21.001 39.831 20.791 A 29.277 29.277 0 0 1 42.2 20.701 A 19.986 19.986 0 0 1 43.938 20.771 Q 45.484 20.907 46.6 21.301 Q 48.3 21.901 49.6 23.251 A 5.832 5.832 0 0 1 50.541 24.579 Q 50.88 25.219 51.141 26.016 A 13.603 13.603 0 0 1 51.5 27.351 A 37.132 37.132 0 0 1 51.938 29.766 Q 52.222 31.665 52.4 33.951 A 84.157 84.157 0 0 1 52.571 36.84 Q 52.7 39.829 52.7 43.701 A 29.451 29.451 0 0 1 52.227 49.09 A 23.268 23.268 0 0 1 51 53.401 Q 49.3 57.701 46.65 60.451 Q 44 63.201 40.5 65.051 A 28.503 28.503 0 0 1 35.715 67.066 A 24.654 24.654 0 0 1 33.5 67.651 Q 30 68.401 26.45 68.401 Q 22.9 68.401 19.4 67.651 A 26.623 26.623 0 0 1 14.343 66.004 A 31.792 31.792 0 0 1 12.35 65.051 Q 8.8 63.201 6.1 60.451 Q 3.4 57.701 1.7 53.401 A 24.005 24.005 0 0 1 0.239 47.596 A 30.717 30.717 0 0 1 0 43.701 Q 0 33.901 0.9 29.151 A 20.968 20.968 0 0 1 1.5 26.723 Q 2.298 24.207 3.606 22.873 A 5.578 5.578 0 0 1 3.95 22.551 A 6.677 6.677 0 0 1 6.116 21.336 Q 7.104 20.988 8.322 20.831 A 17.039 17.039 0 0 1 10.5 20.701 Q 15.666 20.701 18.332 22.193 A 6.479 6.479 0 0 1 19.3 22.851 A 6.701 6.701 0 0 1 21.402 26.045 Q 21.9 27.588 21.9 29.601 L 22 45.601 L 22 47.951 A 14.454 14.454 0 0 0 22.014 48.561 Q 22.026 48.837 22.047 49.147 A 30.732 30.732 0 0 0 22.1 49.801 A 7.678 7.678 0 0 0 22.171 50.365 Q 22.261 50.904 22.418 51.244 A 1.652 1.652 0 0 0 22.5 51.401 Q 22.8 51.901 23.25 52.451 A 2.205 2.205 0 0 0 24.264 53.144 A 2.766 2.766 0 0 0 24.45 53.201 Q 25.2 53.401 26.3 53.401 A 7.873 7.873 0 0 0 27.544 53.31 Q 28.192 53.206 28.688 52.982 A 2.568 2.568 0 0 0 30 51.751 Q 30.787 50.127 30.8 45.843 A 47.689 47.689 0 0 0 30.8 45.701 Z M 97.2 46.701 L 83.1 46.801 A 9.824 9.824 0 0 0 84.975 50.273 A 9.393 9.393 0 0 0 86.7 51.851 Q 89.3 53.701 93.3 53.701 A 36.388 36.388 0 0 0 100.838 52.888 A 41.187 41.187 0 0 0 102.1 52.601 A 18.728 18.728 0 0 0 103.958 52 Q 105.055 51.585 106.25 51.001 A 22.578 22.578 0 0 1 107.236 50.545 Q 108.734 49.901 109.5 49.901 A 4.655 4.655 0 0 1 110.58 50.019 A 3.103 3.103 0 0 1 112.15 50.901 A 3.425 3.425 0 0 1 113.091 53.118 A 4.521 4.521 0 0 1 113.1 53.401 A 5.203 5.203 0 0 1 112.896 54.783 Q 112.552 56.026 111.63 57.541 A 18.372 18.372 0 0 1 111.5 57.751 A 20.222 20.222 0 0 1 109.657 60.221 Q 108.662 61.371 107.412 62.522 A 34.275 34.275 0 0 1 107.05 62.851 A 19.439 19.439 0 0 1 103.972 65.076 Q 102.429 65.989 100.567 66.772 A 35.359 35.359 0 0 1 99.5 67.201 A 27.666 27.666 0 0 1 90.49 68.982 A 31.78 31.78 0 0 1 89.4 69.001 A 38.809 38.809 0 0 1 80.271 67.981 A 28.135 28.135 0 0 1 69.25 62.701 A 20.334 20.334 0 0 1 61.395 47.83 A 27.946 27.946 0 0 1 61.3 45.501 A 28.63 28.63 0 0 1 62.404 37.347 A 21.926 21.926 0 0 1 69.15 26.851 A 27.273 27.273 0 0 1 82.352 20.62 A 38.361 38.361 0 0 1 89.4 20.001 A 52.385 52.385 0 0 1 95.487 20.329 Q 102.633 21.168 106.55 24.151 A 13.239 13.239 0 0 1 111.915 33.748 A 17.623 17.623 0 0 1 112 35.501 Q 112 36.901 111.65 38.201 A 9.813 9.813 0 0 1 110.775 40.359 A 11.235 11.235 0 0 1 110.55 40.751 A 8.753 8.753 0 0 1 109.214 42.444 A 10.537 10.537 0 0 1 108.55 43.051 A 15.598 15.598 0 0 1 106.572 44.457 A 18.335 18.335 0 0 1 105.7 44.951 A 12.073 12.073 0 0 1 103.891 45.721 Q 102.995 46.023 101.967 46.237 A 19.595 19.595 0 0 1 101.9 46.251 A 22.388 22.388 0 0 1 98.583 46.665 A 26.424 26.424 0 0 1 97.2 46.701 Z M 283.5 35.901 L 283.5 53.401 Q 283.5 60.07 281.868 63.507 A 8.048 8.048 0 0 1 280.85 65.151 Q 278.2 68.401 272.5 68.401 A 15.735 15.735 0 0 1 269.439 68.123 Q 267.68 67.774 266.34 66.985 A 7.656 7.656 0 0 1 264.3 65.251 Q 261.7 62.101 261.7 54.101 L 261.8 35.901 A 14.141 14.141 0 0 1 259.099 35.629 Q 254.759 34.718 254.428 30.775 A 8.038 8.038 0 0 1 254.4 30.101 A 6.599 6.599 0 0 1 254.961 27.285 Q 256.451 24.091 261.9 23.801 Q 262 10.901 265.65 5.451 A 10.797 10.797 0 0 1 270.555 1.539 Q 272.478 0.722 274.939 0.339 A 31.052 31.052 0 0 1 279.7 0.001 Q 288 0.001 292.65 3.401 A 18.395 18.395 0 0 1 294.684 5.107 Q 297.019 7.4 297.27 9.737 A 5.277 5.277 0 0 1 297.3 10.301 A 3.364 3.364 0 0 1 296.447 12.54 A 4.725 4.725 0 0 1 296.05 12.951 A 4.077 4.077 0 0 1 294.433 13.846 Q 293.583 14.101 292.5 14.101 Q 288.483 14.101 286.415 15.243 A 4.947 4.947 0 0 0 285.6 15.801 Q 283.508 17.495 283.5 23.656 A 36.314 36.314 0 0 0 283.5 23.701 A 56.65 56.65 0 0 1 286.572 23.777 Q 290.845 24.011 292.8 24.951 Q 295.006 26.011 295.34 29.195 A 11.557 11.557 0 0 1 295.4 30.401 Q 295.4 33.743 292.695 34.814 A 5.533 5.533 0 0 1 292.6 34.851 A 11.997 11.997 0 0 1 290.748 35.358 Q 288.028 35.901 283.5 35.901 Z M 352.5 31.701 L 352.5 57.701 Q 352.5 62.918 350.61 65.375 A 5.662 5.662 0 0 1 350 66.051 A 6.917 6.917 0 0 1 347.832 67.389 Q 345.775 68.222 342.608 68.369 A 30.38 30.38 0 0 1 341.2 68.401 A 18.18 18.18 0 0 1 338.181 68.169 Q 334.075 67.476 332.5 64.701 A 25.256 25.256 0 0 1 321.224 68.78 A 32.319 32.319 0 0 1 317.4 69.001 A 15.898 15.898 0 0 1 305.384 63.794 A 21.037 21.037 0 0 1 304.3 62.551 Q 299.775 56.937 299.188 47.726 A 44.441 44.441 0 0 1 299.1 44.901 A 41.041 41.041 0 0 1 299.709 37.613 Q 300.453 33.492 302.107 30.193 A 21.688 21.688 0 0 1 304.25 26.751 Q 309.4 20.001 317.4 20.001 A 22.431 22.431 0 0 1 330.325 24.134 A 29.105 29.105 0 0 1 332.4 25.701 A 9.568 9.568 0 0 1 335.17 22.44 Q 337.561 20.701 341.1 20.701 Q 344.91 20.701 347.526 21.871 A 9.429 9.429 0 0 1 349.5 23.051 A 6.703 6.703 0 0 1 351.497 25.736 Q 352.437 27.913 352.496 31.25 A 25.573 25.573 0 0 1 352.5 31.701 Z M 142.9 37.601 L 142.9 57.701 Q 142.9 62.918 141.01 65.375 A 5.662 5.662 0 0 1 140.4 66.051 A 6.889 6.889 0 0 1 138.22 67.389 Q 135.7 68.401 131.5 68.401 Q 126.303 68.401 124.054 66.267 A 5.197 5.197 0 0 1 123.5 65.651 A 8.163 8.163 0 0 1 122.326 63.402 Q 121.4 60.784 121.4 56.601 L 121.4 32.001 A 16.284 16.284 0 0 1 121.664 29 A 12.153 12.153 0 0 1 122.6 26.051 Q 123.8 23.501 126.1 22.101 Q 128.4 20.701 131.5 20.701 Q 135.582 20.701 138.164 21.97 A 7.397 7.397 0 0 1 141.5 25.101 Q 147.3 20.701 152.7 20.701 A 15.919 15.919 0 0 1 156.791 21.179 Q 162.017 22.573 162.982 28.025 A 15.38 15.38 0 0 1 163.2 30.701 A 11.355 11.355 0 0 1 162.849 33.597 A 8.386 8.386 0 0 1 160.9 37.201 Q 158.6 39.701 154.9 39.701 A 8.831 8.831 0 0 1 153.488 39.594 Q 152.236 39.391 151.35 38.801 A 42.644 42.644 0 0 1 149.588 37.563 A 36.388 36.388 0 0 1 148.85 37.001 Q 147.7 36.101 146.2 36.101 A 5.119 5.119 0 0 0 144.875 36.262 A 3.496 3.496 0 0 0 142.9 37.601 Z M 331 54.001 L 331 35.301 A 7.561 7.561 0 0 0 329.934 33.866 A 4.483 4.483 0 0 0 326.6 32.401 A 3.452 3.452 0 0 0 324.152 33.442 Q 323.163 34.39 322.4 36.201 A 20.032 20.032 0 0 0 321.064 41.101 A 26.303 26.303 0 0 0 320.8 44.901 Q 320.8 49.501 322.3 53.101 Q 323.8 56.701 326.5 56.701 A 4.869 4.869 0 0 0 330.324 54.918 A 7.435 7.435 0 0 0 331 54.001 Z M 84.227 40.377 A 9181.903 9181.903 0 0 0 82.6 40.401 A 27.446 27.446 0 0 1 82.864 38.343 A 22.611 22.611 0 0 1 83.9 34.351 Q 84.9 31.601 86.25 30.101 Q 87.6 28.601 89 28.601 Q 92.088 28.601 92.666 32.76 A 15.619 15.619 0 0 1 92.8 34.901 A 20.869 20.869 0 0 1 92.8 34.996 Q 92.79 37.228 92.3 38.501 A 5.127 5.127 0 0 1 92.247 38.632 Q 91.544 40.301 90.1 40.301 A 15.432 15.432 0 0 0 90.013 40.301 Q 89.231 40.305 84.227 40.377 Z" vector-effect="non-scaling-stroke"/></g></svg>