<svg width="274.2" height="69.702" viewBox="0 0 274.2 69.702" xmlns="http://www.w3.org/2000/svg"><g id="wow" stroke-linecap="round" fill-rule="evenodd" font-size="9pt" stroke="#000" stroke-width="0.25mm" fill="black" style="stroke:#000;stroke-width:0.25mm;fill:black"><path d="M 68 35.302 L 68.2 10.802 A 18.246 18.246 0 0 1 68.394 8.046 Q 68.889 4.813 70.65 3.052 A 6.934 6.934 0 0 1 72.987 1.559 Q 75.35 0.602 79.1 0.602 A 18.606 18.606 0 0 1 81.472 0.743 Q 83.574 1.014 85.05 1.802 Q 86.751 2.709 88.081 4.931 A 16.078 16.078 0 0 1 88.9 6.502 A 19.705 19.705 0 0 1 89.921 9.34 Q 90.716 12.158 91.1 16.002 Q 91.7 22.002 91.7 31.902 Q 91.7 37.802 90.7 42.902 A 49.34 49.34 0 0 1 89.609 47.397 Q 88.947 49.634 88.112 51.548 A 29.951 29.951 0 0 1 88 51.802 A 34.616 34.616 0 0 1 84.947 57.281 A 31.04 31.04 0 0 1 83.95 58.652 A 30.668 30.668 0 0 1 81.305 61.674 A 24.092 24.092 0 0 1 79 63.702 Q 76.4 65.702 73.5 67.052 Q 70.6 68.402 67.85 68.952 A 27.836 27.836 0 0 1 63.48 69.482 A 25 25 0 0 1 62.5 69.502 Q 53.5 69.502 46.2 63.802 Q 39 69.702 29.9 69.702 Q 26 69.702 22.1 68.552 A 24.676 24.676 0 0 1 17.727 66.768 A 33.084 33.084 0 0 1 14.15 64.602 Q 10.1 61.802 7 57.652 Q 3.9 53.502 1.95 46.852 Q 0 40.202 0 32.102 Q 0 21.352 0.842 14.912 A 48.689 48.689 0 0 1 1.25 12.302 A 35.848 35.848 0 0 1 1.956 9.22 Q 2.83 6.1 4.104 4.302 A 7.308 7.308 0 0 1 5.05 3.202 Q 7.182 1.195 10.956 0.866 A 17.787 17.787 0 0 1 12.5 0.802 A 23.739 23.739 0 0 1 15.008 0.925 Q 16.235 1.056 17.258 1.325 A 9.773 9.773 0 0 1 19 1.952 A 7.573 7.573 0 0 1 20.97 3.286 A 6.432 6.432 0 0 1 22.4 5.302 A 9.939 9.939 0 0 1 23.048 7.304 Q 23.4 8.924 23.4 11.002 L 23.5 35.402 A 99.099 99.099 0 0 0 23.594 39.87 Q 23.875 46.077 25 49.302 Q 26.5 53.602 30.9 53.602 A 4.12 4.12 0 0 0 32.367 53.352 Q 33.397 52.963 34.066 51.965 A 4.7 4.7 0 0 0 34.2 51.752 A 7.396 7.396 0 0 0 34.805 50.415 Q 35.285 49.045 35.559 47.017 A 32.733 32.733 0 0 0 35.7 45.802 A 37.675 37.675 0 0 1 35.131 42.495 Q 34.631 38.689 34.473 33.173 A 191.507 191.507 0 0 1 34.4 27.702 Q 34.4 20.802 34.7 16.702 A 76.594 76.594 0 0 1 34.967 13.781 Q 35.128 12.341 35.335 11.068 A 41.196 41.196 0 0 1 35.6 9.602 A 13.391 13.391 0 0 1 36.027 7.97 Q 36.616 6.216 37.6 5.302 Q 39 4.002 40.75 3.452 Q 42.422 2.926 45.326 2.903 A 33.939 33.939 0 0 1 45.6 2.902 A 56.087 56.087 0 0 1 46.887 2.916 Q 47.906 2.939 48.75 3.002 Q 50.1 3.102 51.3 3.602 A 45.757 45.757 0 0 1 52.144 3.963 Q 52.8 4.252 53.3 4.502 Q 54.1 4.902 54.8 6.002 Q 55.322 6.822 55.678 7.476 A 14.086 14.086 0 0 1 55.9 7.902 A 4.801 4.801 0 0 1 56.121 8.431 Q 56.331 9.018 56.526 9.901 A 24.287 24.287 0 0 1 56.65 10.502 A 52.343 52.343 0 0 1 56.884 11.788 Q 57.056 12.808 57.15 13.652 Q 57.265 14.685 57.321 16.481 A 94.43 94.43 0 0 1 57.35 17.652 Q 57.4 20.302 57.45 22.252 Q 57.5 24.202 57.5 27.802 Q 57.5 40.402 56.2 46.402 A 23.312 23.312 0 0 0 56.48 48.276 Q 56.842 50.132 57.46 51.292 A 5.613 5.613 0 0 0 57.7 51.702 A 3.585 3.585 0 0 0 60.329 53.349 A 5.448 5.448 0 0 0 61.1 53.402 A 5.422 5.422 0 0 0 63.711 52.791 Q 65.568 51.791 66.5 49.152 A 18.989 18.989 0 0 0 67.217 46.383 Q 68 42.239 68 35.302 Z M 250.5 35.302 L 250.7 10.802 A 18.246 18.246 0 0 1 250.894 8.046 Q 251.389 4.813 253.15 3.052 A 6.934 6.934 0 0 1 255.487 1.559 Q 257.85 0.602 261.6 0.602 A 18.606 18.606 0 0 1 263.972 0.743 Q 266.074 1.014 267.55 1.802 Q 269.251 2.709 270.581 4.931 A 16.078 16.078 0 0 1 271.4 6.502 A 19.705 19.705 0 0 1 272.421 9.34 Q 273.216 12.158 273.6 16.002 Q 274.2 22.002 274.2 31.902 Q 274.2 37.802 273.2 42.902 A 49.34 49.34 0 0 1 272.109 47.397 Q 271.447 49.634 270.612 51.548 A 29.951 29.951 0 0 1 270.5 51.802 A 34.616 34.616 0 0 1 267.447 57.281 A 31.04 31.04 0 0 1 266.45 58.652 A 30.668 30.668 0 0 1 263.805 61.674 A 24.092 24.092 0 0 1 261.5 63.702 Q 258.9 65.702 256 67.052 Q 253.1 68.402 250.35 68.952 A 27.836 27.836 0 0 1 245.98 69.482 A 25 25 0 0 1 245 69.502 Q 236 69.502 228.7 63.802 Q 221.5 69.702 212.4 69.702 Q 208.5 69.702 204.6 68.552 A 24.676 24.676 0 0 1 200.227 66.768 A 33.084 33.084 0 0 1 196.65 64.602 Q 192.6 61.802 189.5 57.652 Q 186.4 53.502 184.45 46.852 Q 182.5 40.202 182.5 32.102 Q 182.5 21.352 183.342 14.912 A 48.689 48.689 0 0 1 183.75 12.302 A 35.848 35.848 0 0 1 184.456 9.22 Q 185.33 6.1 186.604 4.302 A 7.308 7.308 0 0 1 187.55 3.202 Q 189.682 1.195 193.456 0.866 A 17.787 17.787 0 0 1 195 0.802 A 23.739 23.739 0 0 1 197.508 0.925 Q 198.735 1.056 199.758 1.325 A 9.773 9.773 0 0 1 201.5 1.952 A 7.573 7.573 0 0 1 203.47 3.286 A 6.432 6.432 0 0 1 204.9 5.302 A 9.939 9.939 0 0 1 205.548 7.304 Q 205.9 8.924 205.9 11.002 L 206 35.402 A 99.099 99.099 0 0 0 206.094 39.87 Q 206.375 46.077 207.5 49.302 Q 209 53.602 213.4 53.602 A 4.12 4.12 0 0 0 214.867 53.352 Q 215.897 52.963 216.566 51.965 A 4.7 4.7 0 0 0 216.7 51.752 A 7.396 7.396 0 0 0 217.305 50.415 Q 217.785 49.045 218.059 47.017 A 32.733 32.733 0 0 0 218.2 45.802 A 37.675 37.675 0 0 1 217.631 42.495 Q 217.131 38.689 216.973 33.173 A 191.507 191.507 0 0 1 216.9 27.702 Q 216.9 20.802 217.2 16.702 A 76.594 76.594 0 0 1 217.467 13.781 Q 217.628 12.341 217.835 11.068 A 41.196 41.196 0 0 1 218.1 9.602 A 13.391 13.391 0 0 1 218.527 7.97 Q 219.116 6.216 220.1 5.302 Q 221.5 4.002 223.25 3.452 Q 224.922 2.926 227.826 2.903 A 33.939 33.939 0 0 1 228.1 2.902 A 56.087 56.087 0 0 1 229.387 2.916 Q 230.406 2.939 231.25 3.002 Q 232.6 3.102 233.8 3.602 A 45.757 45.757 0 0 1 234.644 3.963 Q 235.3 4.252 235.8 4.502 Q 236.6 4.902 237.3 6.002 Q 237.822 6.822 238.178 7.476 A 14.086 14.086 0 0 1 238.4 7.902 A 4.801 4.801 0 0 1 238.621 8.431 Q 238.831 9.018 239.026 9.901 A 24.287 24.287 0 0 1 239.15 10.502 A 52.343 52.343 0 0 1 239.384 11.788 Q 239.556 12.808 239.65 13.652 Q 239.765 14.685 239.821 16.481 A 94.43 94.43 0 0 1 239.85 17.652 Q 239.9 20.302 239.95 22.252 Q 240 24.202 240 27.802 Q 240 40.402 238.7 46.402 A 23.312 23.312 0 0 0 238.98 48.276 Q 239.342 50.132 239.96 51.292 A 5.613 5.613 0 0 0 240.2 51.702 A 3.585 3.585 0 0 0 242.829 53.349 A 5.448 5.448 0 0 0 243.6 53.402 A 5.422 5.422 0 0 0 246.211 52.791 Q 248.068 51.791 249 49.152 A 18.989 18.989 0 0 0 249.717 46.383 Q 250.5 42.239 250.5 35.302 Z M 141.313 69.499 A 37.621 37.621 0 0 0 154.7 65.752 Q 162.6 61.802 167.35 53.902 A 32.056 32.056 0 0 0 171.056 44.718 A 40.717 40.717 0 0 0 172.1 35.302 A 45.809 45.809 0 0 0 171.406 27.151 A 31.777 31.777 0 0 0 162.3 9.552 A 32.35 32.35 0 0 0 148.653 1.578 A 41.132 41.132 0 0 0 137 0.002 A 45.34 45.34 0 0 0 131.165 0.366 A 33.004 33.004 0 0 0 111.75 9.552 A 31.197 31.197 0 0 0 103.357 24.14 A 43.468 43.468 0 0 0 102 35.302 A 43.344 43.344 0 0 0 102.462 41.735 A 33.159 33.159 0 0 0 106.7 53.902 Q 111.4 61.802 119.25 65.752 A 35.655 35.655 0 0 0 126.502 68.452 A 42.21 42.21 0 0 0 136.95 69.702 A 46.064 46.064 0 0 0 141.313 69.499 Z M 137 55.102 A 7.015 7.015 0 0 0 141.97 53.054 A 10.187 10.187 0 0 0 142.85 52.102 A 16.748 16.748 0 0 0 145.451 47.592 A 21.643 21.643 0 0 0 146.35 44.702 Q 147.4 40.302 147.4 35.302 A 42.296 42.296 0 0 0 146.781 27.961 A 37.449 37.449 0 0 0 146.3 25.652 A 23.014 23.014 0 0 0 144.779 21.258 A 18.318 18.318 0 0 0 142.75 17.902 A 9.811 9.811 0 0 0 141.061 16.155 A 6.396 6.396 0 0 0 137 14.702 Q 133.8 14.702 131.4 17.902 A 19.967 19.967 0 0 0 128.973 22.195 A 26.199 26.199 0 0 0 127.8 25.702 Q 126.6 30.302 126.6 35.302 A 38.766 38.766 0 0 0 127.144 41.893 A 33.811 33.811 0 0 0 127.75 44.702 Q 128.9 49.102 131.35 52.102 A 9.64 9.64 0 0 0 133.081 53.779 A 6.463 6.463 0 0 0 137 55.102 Z" vector-effect="non-scaling-stroke"/></g></svg>